<?xml version="1.0" encoding="UTF-8" standalone="no"?>
<!-- Created with Inkscape (http://www.inkscape.org/) -->

<svg
   version="1.1"
   id="svg2"
   width="526.66669"
   height="556"
   viewBox="0 0 526.66669 556"
   sodipodi:docname="dxn-seeklogo.eps"
   xmlns:inkscape="http://www.inkscape.org/namespaces/inkscape"
   xmlns:sodipodi="http://sodipodi.sourceforge.net/DTD/sodipodi-0.dtd"
   xmlns="http://www.w3.org/2000/svg"
   xmlns:svg="http://www.w3.org/2000/svg">
  <defs
     id="defs6" />
  <sodipodi:namedview
     id="namedview4"
     pagecolor="#ffffff"
     bordercolor="#000000"
     borderopacity="0.25"
     inkscape:showpageshadow="2"
     inkscape:pageopacity="0.0"
     inkscape:pagecheckerboard="0"
     inkscape:deskcolor="#d1d1d1" />
  <g
     id="g8"
     inkscape:groupmode="layer"
     inkscape:label="ink_ext_XXXXXX"
     transform="matrix(1.3333333,0,0,-1.3333333,0,556)">
    <g
       id="g10"
       transform="scale(0.1)">
      <path
         d="m 2205.32,4167.18 c 535.76,0 970.09,-637.24 970.09,-1423.32 0,-786.07 -434.33,-1423.31 -970.09,-1423.31 -535.76,0 -970.08,637.24 -970.08,1423.31 0,786.08 434.32,1423.32 970.08,1423.32"
         style="fill:#ed1c24;fill-opacity:1;fill-rule:evenodd;stroke:none"
         id="path12" />
      <path
         d="M 1.98828,1174.34 H 3941.19 V 959.965 H 1.98828 v 214.375"
         style="fill:#2e3192;fill-opacity:1;fill-rule:evenodd;stroke:none"
         id="path14" />
      <path
         d="M 261.906,2908.09 C 162.105,2950.45 64.3984,3081.46 65.2188,3270.57 L 62.1367,3574.3 H 173.465 l -1.293,-305.39 c -0.399,-93.54 40.109,-175.48 89.734,-241.23 v 546.62 122.96 H 391.418 V 3574.3 h 2.879 v -546.62 c 49.625,65.75 90.101,147.69 89.734,241.23 l -1.289,325.38 H 594.07 l -3.082,-323.72 c 0.825,-190.93 -98.773,-322.62 -199.57,-363.67 V 2768.15 H 261.906 v 139.94"
         style="fill:#00a650;fill-opacity:1;fill-rule:evenodd;stroke:none"
         id="path16" />
      <path
         d="m 861.035,2908.09 c -99.801,42.36 -197.508,173.37 -196.691,362.48 l -3.082,303.73 H 772.59 l -1.289,-305.39 c -0.399,-93.54 40.109,-175.48 89.734,-241.23 v 546.62 122.96 H 990.547 V 3574.3 h 2.879 v -546.62 c 49.624,65.75 90.104,147.69 89.734,241.23 l -1.29,325.38 h 111.33 l -3.09,-323.72 c 0.83,-190.93 -98.77,-322.62 -199.563,-363.67 V 2768.15 H 861.035 v 139.94"
         style="fill:#00a650;fill-opacity:1;fill-rule:evenodd;stroke:none"
         id="path18" />
      <path
         d="M 549.875,2704.73 H 681.52 v -927.65 c 101.953,92.02 149.867,223.13 159.824,444.97 v 482.68 h 134.429 v -426.81 c 5.489,-355.38 -117.742,-535.98 -291.16,-638.53 V 1174.34 H 557.125 v 214.71 c -172.152,44.56 -292.863,245.38 -295.871,609.27 v 485.18 h 136.273 v -399.23 c -0.011,-363.77 66.567,-495.52 153.008,-565.28 v 1011.55 h -0.66 v 174.19"
         style="fill:#00a650;fill-opacity:1;fill-rule:evenodd;stroke:none"
         id="path20" />
      <path
         d="M 545.492,600.688 H 763.578 V 192.262 c 71.352,7.117 129.938,38.14 175.746,92.707 45.805,54.75 68.616,120.996 68.616,198.738 0,48.367 -12.776,85.59 -38.143,111.512 -25.551,25.726 -62.227,38.687 -110.047,38.687 H 507.531 l 49.278,182.86 h 300.937 c 66.609,0 119.902,-5.473 159.864,-16.61 39.97,-10.949 75.01,-29.379 105.3,-55.113 33.22,-27.738 58.22,-63.141 75.19,-106.027 16.97,-42.887 25.37,-91.797 25.37,-146.731 0,-69.531 -13.87,-136.14 -41.79,-200.015 C 1153.94,228.578 1114.88,174.012 1064.7,128.75 1016.52,85.1328 963.594,53.75 905.559,34.4023 847.707,14.875 775.984,5.20313 690.391,5.20313 H 545.492 V 600.688"
         style="fill:#2e3192;fill-opacity:1;fill-rule:nonzero;stroke:none"
         id="path22" />
      <path
         d="m 1792.69,430.234 -194.54,386.532 h 240.53 l 98.91,-236.879 99.46,236.879 h 241.08 L 2081.95,430.234 2295.29,5.20313 H 2054.75 L 1937.59,271.469 1821.53,5.20313 H 1580.45 L 1792.69,430.234"
         style="fill:#2e3192;fill-opacity:1;fill-rule:nonzero;stroke:none"
         id="path24" />
      <path
         d="M 2933.31,514.184 V 5.20313 H 2715.23 V 816.766 h 208.05 l 230.85,-294.551 v 294.551 h 214.99 V 5.20313 H 3154.13 V 232.961 l -220.82,281.223"
         style="fill:#2e3192;fill-opacity:1;fill-rule:nonzero;stroke:none"
         id="path26" />
    </g>
  </g>
</svg>
